<svg width="105" height="106" xmlns="http://www.w3.org/2000/svg" xmlns:xlink="http://www.w3.org/1999/xlink"><defs><path d="M4.1 0h20.378c2.262 0 4.101 1.82 4.101 4.057v45.336c0 2.237-1.84 4.056-4.1 4.056H4.1c-2.26 0-4.1-1.82-4.1-4.056V4.057C0 1.82 1.84 0 4.1 0z" id="a"/><path d="M.452 0C.202 0 0 .218 0 .486s.203.486.452.486H7.15c.25 0 .452-.218.452-.486S7.401 0 7.151 0H.45z" id="b"/><path d="M0 2.445A2.447 2.447 0 0 1 2.444 0a2.447 2.447 0 0 1 2.444 2.445 2.447 2.447 0 0 1-2.444 2.443A2.447 2.447 0 0 1 0 2.445zm1 0a1.445 1.445 0 0 0 2.887 0C3.887 1.649 3.24 1 2.444 1s-1.443.648-1.443 1.444z" id="c"/></defs><g fill="none" fill-rule="evenodd"><use stroke="#FFF" stroke-width="2" xlink:href="#a" transform="translate(39 19)"/><use fill="#FFF" xlink:href="#b" transform="translate(49 23)"/><use fill="#FFF" xlink:href="#c" transform="translate(51 65)"/><g fill="#FFF"><path d="M35.74 11.775a5.83 5.83 0 0 1-3.118-3.622 5.793 5.793 0 0 1 4.768.071 5.83 5.83 0 0 1 3.119 3.622 5.793 5.793 0 0 1-4.769-.071"/><path d="M36.222 5.004a5.821 5.821 0 0 1-3.607 3.13 5.86 5.86 0 0 1 .07-4.786A5.823 5.823 0 0 1 36.293.217a5.858 5.858 0 0 1-.07 4.787m-6.695 9.938a5.821 5.821 0 0 1-3.698-3.022 5.819 5.819 0 0 1 8.406 2.261 5.794 5.794 0 0 1-4.708.761"/><path d="M28.831 8.19a5.834 5.834 0 0 1-3.01 3.713 5.859 5.859 0 0 1-.76-4.727 5.832 5.832 0 0 1 3.012-3.712 5.855 5.855 0 0 1 .758 4.726m-4.877 10.963a5.81 5.81 0 0 1-4.164-2.332 5.811 5.811 0 0 1 8.67.761 5.803 5.803 0 0 1-4.506 1.571"/><path d="M22.1 12.625a5.846 5.846 0 0 1-2.322 4.182 5.854 5.854 0 0 1-1.565-4.523 5.843 5.843 0 0 1 2.323-4.182 5.853 5.853 0 0 1 1.564 4.523M19.188 24.28a5.802 5.802 0 0 1-4.505-1.571 5.808 5.808 0 0 1 4.165-2.332 5.8 5.8 0 0 1 4.505 1.57 5.811 5.811 0 0 1-4.165 2.333"/><path d="M16.233 18.174a5.852 5.852 0 0 1-1.564 4.523 5.843 5.843 0 0 1-2.323-4.182 5.852 5.852 0 0 1 1.564-4.522 5.845 5.845 0 0 1 2.323 4.18m-.858 11.992a5.794 5.794 0 0 1-4.708-.761 5.819 5.819 0 0 1 8.406-2.261 5.821 5.821 0 0 1-3.698 3.022"/><path d="M11.408 24.668a5.855 5.855 0 0 1-.758 4.726 5.832 5.832 0 0 1-3.011-3.712 5.859 5.859 0 0 1 .758-4.727 5.833 5.833 0 0 1 3.011 3.713m1.222 11.964a5.796 5.796 0 0 1-4.769.071 5.83 5.83 0 0 1 3.12-3.622 5.796 5.796 0 0 1 4.768-.07 5.83 5.83 0 0 1-3.12 3.62"/><path d="M7.772 31.909a5.858 5.858 0 0 1 .071 4.787 5.82 5.82 0 0 1-3.607-3.131 5.86 5.86 0 0 1-.071-4.787 5.821 5.821 0 0 1 3.607 3.13m3.264 11.575a5.795 5.795 0 0 1-4.684.9 5.843 5.843 0 0 1 2.446-4.11 5.795 5.795 0 0 1 4.684-.9 5.843 5.843 0 0 1-2.446 4.11"/><path d="M5.436 39.678a5.854 5.854 0 0 1 .898 4.702 5.81 5.81 0 0 1-4.095-2.454 5.858 5.858 0 0 1-.897-4.703 5.81 5.81 0 0 1 4.094 2.455m5.208 10.832a5.806 5.806 0 0 1-4.457 1.704 5.851 5.851 0 0 1 1.697-4.475 5.804 5.804 0 0 1 4.457-1.704 5.852 5.852 0 0 1-1.697 4.474"/><path d="M4.47 47.74a5.852 5.852 0 0 1 1.698 4.473A5.804 5.804 0 0 1 1.71 50.51a5.853 5.853 0 0 1-1.698-4.474 5.803 5.803 0 0 1 4.457 1.704m6.998 9.706A5.808 5.808 0 0 1 7.373 59.9a5.856 5.856 0 0 1 .897-4.702 5.812 5.812 0 0 1 4.095-2.455 5.855 5.855 0 0 1-.898 4.703"/><path d="M4.91 55.793a5.84 5.84 0 0 1 2.444 4.11 5.796 5.796 0 0 1-4.683-.9 5.843 5.843 0 0 1-2.446-4.11 5.798 5.798 0 0 1 4.684.9m8.579 8.34a5.824 5.824 0 0 1-3.608 3.132 5.861 5.861 0 0 1 .07-4.788 5.823 5.823 0 0 1 3.608-3.13 5.86 5.86 0 0 1-.07 4.786"/><path d="M6.743 63.65a5.83 5.83 0 0 1 3.119 3.621 5.796 5.796 0 0 1-4.768-.07 5.833 5.833 0 0 1-3.12-3.622 5.793 5.793 0 0 1 4.77.07m9.899 6.721a5.834 5.834 0 0 1-3.011 3.713 5.858 5.858 0 0 1-.758-4.727 5.832 5.832 0 0 1 3.01-3.712 5.857 5.857 0 0 1 .759 4.726"/><path d="M9.917 71.07a5.823 5.823 0 0 1 3.699 3.022 5.819 5.819 0 0 1-8.406-2.261 5.796 5.796 0 0 1 4.707-.761m10.92 4.895a5.846 5.846 0 0 1-2.323 4.182 5.851 5.851 0 0 1-1.564-4.523 5.843 5.843 0 0 1 2.323-4.181 5.853 5.853 0 0 1 1.564 4.522"/><path d="M14.335 77.827a5.812 5.812 0 0 1 4.165 2.332 5.811 5.811 0 0 1-8.67-.761 5.803 5.803 0 0 1 4.505-1.571m11.609 2.923a5.853 5.853 0 0 1-1.565 4.523 5.84 5.84 0 0 1-2.323-4.18 5.851 5.851 0 0 1 1.565-4.524 5.846 5.846 0 0 1 2.323 4.182"/><path d="M19.862 83.717a5.803 5.803 0 0 1 4.505 1.57 5.81 5.81 0 0 1-8.67.762 5.811 5.811 0 0 1 4.165-2.332m11.944.862a5.856 5.856 0 0 1-.758 4.727 5.834 5.834 0 0 1-3.011-3.713 5.857 5.857 0 0 1 .758-4.726 5.832 5.832 0 0 1 3.011 3.712"/><path d="M26.33 88.56a5.794 5.794 0 0 1 4.708.762 5.819 5.819 0 0 1-8.406 2.262 5.82 5.82 0 0 1 3.698-3.023m11.918-1.226a5.858 5.858 0 0 1 .07 4.787 5.82 5.82 0 0 1-3.607-3.131 5.86 5.86 0 0 1-.07-4.788 5.824 5.824 0 0 1 3.607 3.132"/><path d="M33.543 92.21a5.796 5.796 0 0 1 4.769-.07 5.83 5.83 0 0 1-3.12 3.621 5.793 5.793 0 0 1-4.768.071 5.83 5.83 0 0 1 3.12-3.621M43.945 6.017a5.796 5.796 0 0 1-4.756-.346 5.821 5.821 0 0 1 8.178-2.989 5.824 5.824 0 0 1-3.422 3.335"/><path d="M58.994 105.44c-7.952-7.898-15.342-11.012-20.81-12.872-.526-.18-1.015-.346-1.46-.502-18.585-6.53-31.073-23.8-31.073-42.974 0-21.575 15.795-40.396 37.558-44.751l.138.695c-21.433 4.29-36.99 22.817-36.99 44.056 0 18.872 12.297 35.873 30.6 42.304.444.156.93.321 1.455.5 5.524 1.88 15.358 5.027 23.425 13.04l-2.843.504zM69.26 11.775a5.83 5.83 0 0 0 3.12-3.622 5.793 5.793 0 0 0-4.769.071 5.828 5.828 0 0 0-3.119 3.622c1.474.636 3.2.663 4.769-.071"/><path d="M68.779 5.004a5.823 5.823 0 0 0 3.607 3.13 5.86 5.86 0 0 0-.07-4.786A5.823 5.823 0 0 0 68.708.217a5.86 5.86 0 0 0 .07 4.787m6.695 9.938a5.819 5.819 0 0 0 3.698-3.022 5.796 5.796 0 0 0-4.708-.762 5.821 5.821 0 0 0-3.699 3.023 5.795 5.795 0 0 0 4.709.761"/><path d="M76.17 8.19a5.834 5.834 0 0 0 3.01 3.713 5.859 5.859 0 0 0 .759-4.727 5.832 5.832 0 0 0-3.011-3.712 5.857 5.857 0 0 0-.759 4.726m4.878 10.963a5.811 5.811 0 0 0 4.164-2.332 5.81 5.81 0 0 0-8.67.761 5.802 5.802 0 0 0 4.506 1.571"/><path d="M82.9 12.625a5.846 5.846 0 0 0 2.324 4.182 5.853 5.853 0 0 0 1.564-4.523 5.843 5.843 0 0 0-2.323-4.182 5.853 5.853 0 0 0-1.564 4.523m2.912 11.655a5.803 5.803 0 0 0 4.505-1.571 5.809 5.809 0 0 0-4.165-2.332 5.799 5.799 0 0 0-4.505 1.57 5.81 5.81 0 0 0 4.165 2.333"/><path d="M88.768 18.174a5.852 5.852 0 0 0 1.564 4.523 5.841 5.841 0 0 0 2.323-4.182 5.85 5.85 0 0 0-1.564-4.522 5.845 5.845 0 0 0-2.323 4.18m.858 11.992a5.795 5.795 0 0 0 4.709-.761 5.821 5.821 0 0 0-3.699-3.023 5.796 5.796 0 0 0-4.708.762 5.819 5.819 0 0 0 3.698 3.022"/><path d="M93.592 24.668a5.855 5.855 0 0 0 .759 4.726 5.832 5.832 0 0 0 3.01-3.712 5.859 5.859 0 0 0-.758-4.727 5.833 5.833 0 0 0-3.01 3.713m-1.222 11.964a5.796 5.796 0 0 0 4.769.071 5.831 5.831 0 0 0-3.119-3.622 5.796 5.796 0 0 0-4.768-.07 5.83 5.83 0 0 0 3.118 3.62"/><path d="M97.228 31.909a5.86 5.86 0 0 0-.07 4.787 5.82 5.82 0 0 0 3.607-3.131 5.858 5.858 0 0 0 .07-4.787 5.821 5.821 0 0 0-3.607 3.13m-3.263 11.575a5.795 5.795 0 0 0 4.683.9 5.843 5.843 0 0 0-2.445-4.11 5.794 5.794 0 0 0-4.683-.9 5.84 5.84 0 0 0 2.445 4.11"/><path d="M99.565 39.678a5.856 5.856 0 0 0-.898 4.702 5.81 5.81 0 0 0 4.095-2.454 5.858 5.858 0 0 0 .897-4.703 5.81 5.81 0 0 0-4.094 2.455M94.358 50.51a5.806 5.806 0 0 0 4.456 1.704 5.852 5.852 0 0 0-1.697-4.475 5.803 5.803 0 0 0-4.457-1.704 5.853 5.853 0 0 0 1.698 4.474"/><path d="M100.53 47.74a5.851 5.851 0 0 0-1.696 4.473 5.804 5.804 0 0 0 4.456-1.704 5.854 5.854 0 0 0 1.697-4.474 5.804 5.804 0 0 0-4.456 1.704m-6.998 9.707a5.81 5.81 0 0 0 4.095 2.454 5.856 5.856 0 0 0-.898-4.702 5.812 5.812 0 0 0-4.094-2.455 5.858 5.858 0 0 0 .897 4.703"/><path d="M100.092 55.793a5.843 5.843 0 0 0-2.446 4.11 5.797 5.797 0 0 0 4.684-.9 5.84 5.84 0 0 0 2.445-4.11 5.796 5.796 0 0 0-4.683.9m-8.579 8.34a5.824 5.824 0 0 0 3.608 3.132 5.861 5.861 0 0 0-.071-4.788 5.822 5.822 0 0 0-3.608-3.13 5.86 5.86 0 0 0 .071 4.786"/><path d="M98.258 63.65a5.83 5.83 0 0 0-3.12 3.621 5.802 5.802 0 0 0 4.77-.07 5.83 5.83 0 0 0 3.118-3.622 5.793 5.793 0 0 0-4.768.07m-9.9 6.721a5.834 5.834 0 0 0 3.01 3.713 5.856 5.856 0 0 0 .76-4.727 5.832 5.832 0 0 0-3.012-3.712 5.857 5.857 0 0 0-.758 4.726"/><path d="M95.084 71.07a5.82 5.82 0 0 0-3.699 3.022 5.819 5.819 0 0 0 8.406-2.261 5.796 5.796 0 0 0-4.707-.761m-10.921 4.895a5.846 5.846 0 0 0 2.323 4.182 5.851 5.851 0 0 0 1.565-4.523 5.84 5.84 0 0 0-2.323-4.181 5.853 5.853 0 0 0-1.565 4.522"/><path d="M90.666 77.827a5.811 5.811 0 0 0-4.165 2.332 5.811 5.811 0 0 0 8.67-.761 5.802 5.802 0 0 0-4.505-1.571M79.057 80.75a5.853 5.853 0 0 0 1.565 4.523 5.845 5.845 0 0 0 2.323-4.18 5.853 5.853 0 0 0-1.565-4.524 5.846 5.846 0 0 0-2.323 4.182"/><path d="M85.139 83.717a5.803 5.803 0 0 0-4.505 1.57 5.811 5.811 0 0 0 8.67.762 5.812 5.812 0 0 0-4.165-2.332m-11.945.862a5.859 5.859 0 0 0 .759 4.727 5.834 5.834 0 0 0 3.01-3.713 5.857 5.857 0 0 0-.758-4.726 5.833 5.833 0 0 0-3.01 3.712"/><path d="M78.67 88.56a5.794 5.794 0 0 0-4.707.762 5.819 5.819 0 0 0 8.406 2.262 5.823 5.823 0 0 0-3.698-3.023m-11.918-1.226a5.858 5.858 0 0 0-.07 4.787 5.823 5.823 0 0 0 3.607-3.131 5.861 5.861 0 0 0 .07-4.788 5.825 5.825 0 0 0-3.607 3.132"/><path d="M71.458 92.21a5.796 5.796 0 0 0-4.769-.07 5.831 5.831 0 0 0 3.119 3.621 5.793 5.793 0 0 0 4.768.071 5.83 5.83 0 0 0-3.118-3.621M61.056 6.017a5.797 5.797 0 0 0 4.756-.346 5.824 5.824 0 0 0-3.422-3.335 5.791 5.791 0 0 0-4.756.346 5.828 5.828 0 0 0 3.422 3.335"/><path d="M46.007 105.44l-2.843-.505c8.067-8.012 17.9-11.159 23.425-13.04.524-.178 1.011-.343 1.454-.5 18.304-6.43 30.6-23.43 30.6-42.303 0-21.238-15.555-39.766-36.989-44.056l.138-.695C83.555 8.696 99.35 27.517 99.35 49.092c0 19.173-12.487 36.443-31.074 42.974-.444.156-.933.322-1.46.502-5.467 1.86-12.858 4.974-20.809 12.872"/></g><path d="M39 26.5h28.344M39 62.5h28.344" stroke="#FFF"/></g></svg>
